<svg xmlns="http://www.w3.org/2000/svg" width="20" height="20" viewBox="0 0 20 20" fill="none">
  <path d="M11.9203 11.3457L13.7172 12.2426C13.632 12.6682 13.4018 13.051 13.0659 13.3259C12.7299 13.6007 12.309 13.7504 11.875 13.7496C10.3837 13.7479 8.95389 13.1548 7.89935 12.1002C6.84482 11.0457 6.25165 9.61593 6.25 8.1246C6.24988 7.6911 6.39997 7.27095 6.67474 6.93565C6.9495 6.60034 7.33196 6.37061 7.75703 6.28553L8.65391 8.08241L7.89062 9.21835C7.83359 9.30391 7.79854 9.40222 7.78859 9.50456C7.77865 9.60691 7.7941 9.71013 7.83359 9.80507C8.28077 10.8679 9.12626 11.7134 10.1891 12.1605C10.2843 12.2018 10.3883 12.2187 10.4917 12.2097C10.5951 12.2007 10.6946 12.1661 10.7812 12.109L11.9203 11.3457ZM18.125 9.9996C18.1253 11.4024 17.7624 12.7813 17.0717 14.0022C16.381 15.2231 15.3859 16.2444 14.1834 16.9667C12.9808 17.6889 11.6118 18.0875 10.2095 18.1237C8.80719 18.1598 7.41942 17.8323 6.18125 17.173L3.52109 18.0598C3.30085 18.1332 3.0645 18.1439 2.83854 18.0905C2.61257 18.0372 2.40593 17.922 2.24176 17.7578C2.07759 17.5937 1.96239 17.387 1.90906 17.1611C1.85573 16.9351 1.86639 16.6987 1.93984 16.4785L2.82656 13.8183C2.24699 12.7287 1.92328 11.5213 1.88 10.2879C1.83672 9.05441 2.075 7.82731 2.57677 6.6997C3.07854 5.5721 3.8306 4.57362 4.77587 3.78006C5.72114 2.9865 6.83477 2.41872 8.03224 2.11981C9.22971 1.8209 10.4795 1.79873 11.6868 2.05496C12.8942 2.3112 14.0272 2.83911 15.0001 3.59864C15.9729 4.35816 16.7599 5.32933 17.3014 6.43842C17.8428 7.54752 18.1245 8.76539 18.125 9.9996ZM15 11.8746C15.0001 11.7585 14.9678 11.6446 14.9068 11.5458C14.8458 11.447 14.7585 11.3672 14.6547 11.3152L12.1547 10.0652C12.0563 10.0162 11.9467 9.99397 11.8369 10.0008C11.7272 10.0077 11.6212 10.0434 11.5297 10.1043L10.382 10.8699C9.8552 10.5803 9.42165 10.1467 9.13203 9.61991L9.89766 8.47225C9.95857 8.38072 9.99425 8.27473 10.0011 8.165C10.008 8.05526 9.98576 7.94566 9.93672 7.84725L8.68672 5.34725C8.63491 5.24262 8.55482 5.15459 8.45554 5.09315C8.35626 5.0317 8.24176 4.99929 8.125 4.9996C7.2962 4.9996 6.50134 5.32884 5.91529 5.91489C5.32924 6.50094 5 7.2958 5 8.1246C5.00207 9.94733 5.72706 11.6948 7.01592 12.9837C8.30479 14.2725 10.0523 14.9975 11.875 14.9996C12.2854 14.9996 12.6917 14.9188 13.0709 14.7617C13.45 14.6047 13.7945 14.3745 14.0847 14.0843C14.3749 13.7941 14.6051 13.4496 14.7621 13.0705C14.9192 12.6913 15 12.285 15 11.8746Z" fill="white"/>
</svg>