<svg width="588" height="391" viewBox="0 0 588 391" fill="none" xmlns="http://www.w3.org/2000/svg">
<g clip-path="url(#clip0_1525_18273)">
<path d="M297.876 109.895C292.633 101.212 286.421 91.9402 276.691 89.1047C265.424 85.8211 253.849 92.3441 244.031 98.781C214.671 118.032 186.396 138.894 159.336 161.272L159.366 161.609C180.433 160.154 201.5 158.699 222.567 157.245C237.788 156.193 253.531 154.997 266.982 147.787C272.087 145.05 277.062 141.396 282.846 141.141C290.032 140.824 296.298 145.85 301.222 151.101C330.349 182.161 338.778 229.66 371.455 256.949C350.85 206.06 326.246 156.888 297.876 109.895Z" fill="#F2F2F2"/>
<path d="M476.916 373.343C473.695 369.27 472.379 368.316 469.201 364.205C443.331 330.699 419.016 296.06 396.254 260.29C380.794 235.997 366.1 211.236 352.173 186.01C345.542 174.017 339.093 161.929 332.827 149.748C327.964 140.303 323.209 130.801 318.563 121.243C317.234 118.513 315.943 115.771 314.659 113.022C311.632 106.558 308.661 100.062 305.471 93.6862C301.837 86.4189 297.412 78.8 290.738 73.9174C287.7 71.6042 284.068 70.2046 280.266 69.8821C274.832 69.5307 269.819 71.7774 265.106 74.2312C230.625 92.2365 198.345 114.811 169.147 140.498C139.875 166.242 113.71 195.327 91.1863 227.16C90.4972 228.146 88.8677 227.204 89.5632 226.213C92.302 222.334 95.0949 218.498 97.9422 214.703C133.346 167.55 176.756 127.001 226.188 94.91C234.505 89.5128 242.978 84.3687 251.607 79.4778C255.956 77.0114 260.325 74.5764 264.768 72.292C269.123 70.0515 273.748 68.037 278.724 67.9617C295.657 67.6981 304.425 86.9021 310.447 99.824C312.34 103.891 314.256 107.945 316.194 111.987C323.52 127.331 331.128 142.535 339.018 157.599C343.888 166.9 348.864 176.146 353.946 185.338C369.764 213.962 386.576 242.007 404.382 269.472C427.971 305.853 451.372 337.991 478.244 372.012C478.984 372.954 477.662 374.297 476.916 373.343Z" fill="#E4E4E4"/>
<path d="M167.474 131.014C166.49 129.916 165.512 128.818 164.522 127.72C156.713 119.071 148.335 110.524 137.612 105.566C132.499 103.127 126.918 101.832 121.255 101.769C115.402 101.788 109.68 103.325 104.272 105.478C101.715 106.501 99.2144 107.662 96.7517 108.898C93.9377 110.317 91.1739 111.829 88.4229 113.354C83.2588 116.216 78.1617 119.203 73.1317 122.316C63.1233 128.51 53.4283 135.177 44.0468 142.317C39.1835 146.02 34.4205 149.844 29.758 153.789C25.4213 157.454 21.1724 161.218 17.0112 165.079C16.1213 165.902 14.7926 164.571 15.6825 163.749C16.7792 162.726 17.8885 161.709 18.9977 160.705C22.1312 157.869 25.3148 155.086 28.5487 152.358C34.4456 147.375 40.4953 142.585 46.6977 137.987C56.3425 130.832 66.3195 124.163 76.6284 117.979C81.7799 114.892 87.0024 111.934 92.2957 109.105C93.8939 108.252 95.5109 107.417 97.1464 106.627C100.858 104.752 104.714 103.18 108.678 101.926C114.292 100.107 120.233 99.5226 126.093 100.213C131.752 101.037 137.204 102.926 142.162 105.779C152.69 111.672 160.856 120.785 168.802 129.678C169.605 130.581 168.282 131.918 167.474 131.014Z" fill="#E4E4E4"/>
<path d="M383.196 220.632L408.424 211.391L420.95 206.803C425.03 205.309 429.1 203.608 433.317 202.538C436.982 201.49 440.873 201.539 444.51 202.681C447.754 203.883 450.723 205.726 453.241 208.1C455.813 210.473 458.207 213.032 460.402 215.758C463.129 219.041 465.816 222.357 468.514 225.662C479.653 239.304 490.72 253.005 501.713 266.766C512.706 280.526 523.626 294.345 534.472 308.222C545.344 322.133 556.142 336.102 566.865 350.129C568.179 351.847 569.491 353.567 570.803 355.287C571.527 356.237 573.161 355.3 572.426 354.337C561.624 340.168 550.746 326.058 539.794 312.005C528.814 297.92 517.758 283.893 506.627 269.927C495.496 255.961 484.289 242.055 473.008 228.21C470.197 224.761 467.382 221.315 464.562 217.874C462.183 214.97 459.832 212.036 457.223 209.334C452.434 204.374 446.45 199.991 439.288 199.872C435.077 199.802 431.002 201.14 427.09 202.557C422.872 204.085 418.665 205.642 414.452 207.185L389.047 216.49L382.696 218.816C381.569 219.229 382.056 221.049 383.196 220.632Z" fill="#E4E4E4"/>
<path d="M134.292 116.448C121.471 109.849 105.053 111.142 93.2715 119.386C115.743 123.268 137.969 128.463 159.836 134.943C150.755 129.615 143.653 121.266 134.292 116.448Z" fill="#F2F2F2"/>
<path d="M93.1449 119.363L90.6768 121.372C91.5116 120.669 92.3795 120.01 93.2711 119.386C93.229 119.379 93.187 119.371 93.1449 119.363Z" fill="#F2F2F2"/>
<path d="M452.291 220.724C449.808 217.696 447.123 214.526 443.408 213.297L439.94 213.434C466.34 260.149 501.995 300.969 544.716 333.387C513.908 295.833 483.099 258.278 452.291 220.724Z" fill="#F2F2F2"/>
<path d="M236.633 195.75C238.238 201.589 241.854 206.672 246.841 210.098C248.768 211.413 251.049 212.674 251.709 214.914C252.056 216.342 251.842 217.849 251.112 219.124C250.383 220.383 249.496 221.542 248.472 222.575L248.379 222.926C243.594 220.087 239.043 216.495 236.4 211.595C233.757 206.695 233.388 200.273 236.633 195.75Z" fill="#F2F2F2"/>
<path d="M395.916 334.723C397.521 340.562 401.137 345.644 406.123 349.071C408.051 350.385 410.332 351.646 410.992 353.886C411.339 355.315 411.125 356.822 410.394 358.097C409.665 359.355 408.778 360.515 407.755 361.548L407.661 361.898C402.877 359.059 398.326 355.468 395.683 350.568C393.04 345.668 392.671 339.245 395.916 334.723Z" fill="#F2F2F2"/>
<path d="M78.0347 325.137C79.6396 330.976 83.2553 336.058 88.2419 339.485C90.1698 340.799 92.4508 342.06 93.1103 344.301C93.4572 345.729 93.2435 347.236 92.5131 348.511C91.784 349.769 90.8969 350.929 89.8735 351.962L89.78 352.312C84.9958 349.473 80.4443 345.882 77.8015 340.982C75.1588 336.082 74.7898 329.659 78.0347 325.137Z" fill="#F2F2F2"/>
<path d="M443.837 69.8278C463.092 69.8278 478.702 54.1963 478.702 34.9139C478.702 15.6315 463.092 0 443.837 0C424.582 0 408.973 15.6315 408.973 34.9139C408.973 54.1963 424.582 69.8278 443.837 69.8278Z" fill="#12709A"/>
<path d="M506.754 8.12665C489.857 5.83949 470.567 14.9853 466.187 31.4871C465.084 28.5531 463.077 26.0464 460.458 24.3291C457.838 22.6119 454.742 21.773 451.615 21.9337C448.488 22.0943 445.493 23.2462 443.063 25.223C440.633 27.1998 438.893 29.899 438.095 32.9307L440.03 34.3182C476.239 42.1596 513.722 41.9899 549.859 33.8209C538.105 21.4512 523.651 10.4138 506.754 8.12665Z" fill="#F0F0F0"/>
<path d="M434.291 54.6774C417.394 52.3903 398.103 61.5361 393.724 78.0379C392.62 75.1039 390.614 72.5972 387.994 70.8799C385.375 69.1627 382.278 68.3238 379.151 68.4844C376.025 68.6451 373.03 69.797 370.6 71.7738C368.17 73.7505 366.43 76.4498 365.632 79.4815L367.566 80.869C403.776 88.7104 441.258 88.5407 477.395 80.3717C465.642 68.0019 451.188 56.9646 434.291 54.6774Z" fill="#F0F0F0"/>
<path d="M581.765 63.4804C581.695 63.4805 581.626 63.4697 581.559 63.4483C400.806 6.20444 241.498 13.6901 139.683 30.05C125.827 32.2755 111.934 34.8461 98.3899 37.6907C94.9321 38.4161 91.3448 39.1936 87.7278 40.0032C83.4081 40.9666 79.1459 41.9587 75.0589 42.9508C73.2938 43.3693 71.5631 43.7912 69.867 44.2163C67.2977 44.8515 64.6908 45.5133 61.8962 46.2407C58.7736 47.0469 55.6008 47.8926 52.4641 48.7544C52.4527 48.7584 52.4409 48.7618 52.4291 48.7644L52.4294 48.7651C48.8865 49.7338 45.3623 50.7306 41.9542 51.7261C40.1096 52.2596 38.3285 52.7857 36.6224 53.3052C36.4319 53.358 36.263 53.4088 36.0917 53.4609L35.7252 53.5726C35.5129 53.6374 35.3033 53.7009 35.0937 53.7611L35.0803 53.7651L35.0806 53.7658L34.5259 53.9383C33.8643 54.1389 33.2187 54.3348 32.5838 54.53C15.8045 59.7098 6.58037 63.3948 6.48924 63.4309C6.40591 63.4644 6.31682 63.4811 6.22706 63.48C6.13729 63.479 6.0486 63.4603 5.96606 63.4249C5.88352 63.3896 5.80873 63.3383 5.74598 63.274C5.68323 63.2097 5.63374 63.1336 5.60034 63.0502C5.56694 62.9667 5.55029 62.8775 5.55131 62.7876C5.55234 62.6977 5.57105 62.6089 5.60635 62.5263C5.64165 62.4436 5.69286 62.3687 5.75707 62.3059C5.82127 62.243 5.89721 62.1935 5.98054 62.16C6.07233 62.1239 15.3416 58.4202 32.182 53.221C32.8192 53.0251 33.4664 52.8292 34.13 52.628L34.6454 52.4675C34.6631 52.4608 34.6807 52.4555 34.6988 52.4501C34.9074 52.3906 35.1157 52.3271 35.3273 52.263L35.6945 52.1513C35.8774 52.0958 36.0577 52.041 36.2422 51.9902C37.9366 51.4741 39.7238 50.9466 41.573 50.4111C44.9824 49.415 48.51 48.4182 52.0556 47.4481C52.0666 47.4441 52.0779 47.4414 52.0889 47.4381C55.2367 46.5737 58.4211 45.7239 61.5538 44.915C64.3527 44.187 66.9646 43.5238 69.5382 42.8873C71.2416 42.4628 72.9755 42.0401 74.7401 41.6191C78.8318 40.6256 83.1027 39.6322 87.4301 38.6668C91.0528 37.8565 94.6461 37.077 98.1096 36.351C111.675 33.5017 125.589 30.9271 139.466 28.6982C241.427 12.3149 400.964 4.8172 581.971 62.1433C582.126 62.1925 582.259 62.2958 582.346 62.4346C582.432 62.5735 582.466 62.7386 582.441 62.9001C582.416 63.0617 582.334 63.209 582.21 63.3154C582.086 63.4218 581.928 63.4803 581.765 63.4804Z" fill="#CCCCCC"/>
<path d="M179.783 287.416C179.547 286.723 179.148 286.096 178.621 285.588C178.427 285.407 178.216 285.244 177.992 285.102C176.208 283.911 173.542 283.644 171.847 285.102C171.676 285.25 171.518 285.413 171.375 285.588C170.869 286.211 170.349 286.82 169.816 287.416C168.941 288.415 168.046 289.38 167.109 290.318C166.842 290.578 166.576 290.845 166.302 291.106C166.145 291.263 165.988 291.414 165.831 291.564C165.229 292.139 164.614 292.694 163.992 293.242C163.664 293.536 163.336 293.823 163.001 294.104C162.502 294.522 162.002 294.939 161.497 295.343C161.449 295.377 161.401 295.412 161.353 295.453C161.339 295.46 161.333 295.473 161.319 295.48C161.312 295.48 161.305 295.48 161.298 295.494C161.28 295.501 161.263 295.513 161.25 295.528C161.1 295.631 160.998 295.699 160.922 295.761C160.95 295.747 160.977 295.727 161.004 295.713C160.881 295.809 160.751 295.905 160.628 296C159.432 296.884 158.208 297.732 156.957 298.527C153.862 300.51 150.611 302.239 147.236 303.695C147.011 303.784 146.778 303.88 146.546 303.969C137.71 307.594 128.125 309.009 118.62 308.09C117.649 308.015 116.679 307.912 115.708 307.782C114.587 307.618 113.473 307.419 112.365 307.193C108.149 306.351 104.024 305.104 100.046 303.469C95.071 301.188 90.3391 298.408 85.9228 295.172C85.2392 294.686 84.5487 294.2 83.8583 293.728C84.6444 291.797 85.4169 289.867 86.1689 287.922C86.5449 286.984 86.9072 286.047 87.2627 285.102C90.0587 277.825 92.6838 270.479 95.1995 263.106C97.7425 255.637 100.142 248.125 102.398 240.569C102.63 239.803 102.856 239.036 103.075 238.269C104.257 234.278 105.392 230.278 106.479 226.268C106.582 225.878 106.691 225.495 106.787 225.105C107.101 223.955 107.409 222.804 107.71 221.654C108.393 219.06 106.848 215.959 104.127 215.336C102.818 214.999 101.428 215.185 100.253 215.854C99.0768 216.524 98.2063 217.624 97.8245 218.923C97.5306 220.032 97.2366 221.134 96.9359 222.243C95.4934 227.603 93.9758 232.945 92.383 238.269C92.1505 239.036 91.9181 239.803 91.6857 240.569C88.1719 252.166 84.314 263.647 80.112 275.011C79.6062 276.387 79.0935 277.758 78.5739 279.125C78.321 279.796 78.068 280.467 77.8083 281.138C77.3092 282.459 76.7965 283.781 76.2838 285.102C75.9898 285.875 75.689 286.649 75.3883 287.416C75.19 287.902 74.9986 288.388 74.8072 288.867C72.8581 288.166 70.8387 287.68 68.7845 287.416L68.4564 287.375C66.8638 287.183 65.2533 287.197 63.6642 287.416C61.286 287.694 58.9977 288.491 56.9612 289.752C54.9247 291.013 53.1896 292.707 51.8787 294.713C48.6178 299.855 48.6588 307.207 53.2322 311.575C57.9424 316.073 65.0725 316.038 70.6166 313.225C73.5546 311.633 76.032 309.308 77.8083 306.475C78.4888 305.448 79.114 304.385 79.6814 303.291C79.8249 303.387 79.9685 303.483 80.112 303.586C80.6589 303.969 81.2058 304.359 81.7459 304.743C84.8926 307.025 88.2086 309.065 91.6652 310.842C99.0974 314.542 107.098 316.965 115.332 318.01C115.517 318.03 115.694 318.058 115.879 318.078C116.788 318.195 117.704 318.284 118.62 318.359C131.761 319.351 144.917 316.658 156.616 310.582C157.607 310.069 158.589 309.53 159.562 308.966C161.073 308.09 162.549 307.159 163.992 306.173C164.778 305.639 165.544 305.099 166.302 304.53C169.618 302.085 172.709 299.347 175.538 296.35C176.611 295.22 177.639 294.054 178.621 292.851C179.55 291.868 180.085 290.576 180.125 289.223C180.12 288.605 180.004 287.993 179.783 287.416ZM66.5833 303.723C66.7268 303.62 66.8704 303.51 67.0071 303.401C66.9661 303.504 66.7678 303.62 66.5833 303.723ZM68.7777 301.511C68.6205 301.689 68.4769 301.867 68.3197 302.045C67.8413 302.581 67.3274 303.085 66.7815 303.551C66.7063 303.62 66.6243 303.688 66.5423 303.75C66.5414 303.75 66.5405 303.75 66.5396 303.75C66.5388 303.751 66.538 303.751 66.5374 303.752C66.5367 303.753 66.5362 303.753 66.5359 303.754C66.5356 303.755 66.5354 303.756 66.5354 303.757C66.4367 303.801 66.3408 303.851 66.2483 303.907C65.9543 304.085 65.6535 304.25 65.3459 304.4C64.7436 304.622 64.124 304.794 63.4933 304.914C63.0088 304.949 62.5224 304.954 62.0372 304.927H62.0236C61.6887 304.853 61.3579 304.762 61.0323 304.654C60.8683 304.571 60.711 304.476 60.5538 304.38C60.4923 304.325 60.4375 304.27 60.4034 304.236C60.3366 304.175 60.2749 304.109 60.2189 304.037C60.2189 304.037 60.2187 304.036 60.2184 304.035C60.218 304.034 60.2175 304.033 60.2169 304.033C60.2163 304.032 60.2155 304.031 60.2146 304.031C60.2138 304.031 60.2129 304.031 60.212 304.031C60.1368 303.894 60.0548 303.757 59.9796 303.62C59.9757 303.616 59.9732 303.611 59.9727 303.606C59.9181 303.435 59.8702 303.257 59.8292 303.079C59.8144 302.767 59.8166 302.453 59.836 302.141C59.9277 301.704 60.0511 301.274 60.2052 300.854C60.3436 300.557 60.5011 300.269 60.6769 299.992C60.6905 299.964 60.7589 299.855 60.8341 299.731C60.8409 299.725 60.8409 299.725 60.8409 299.718C60.9435 299.601 61.046 299.478 61.1554 299.369C61.34 299.163 61.5382 298.985 61.7365 298.8C62.122 298.548 62.5214 298.317 62.9328 298.109C63.5854 297.877 64.2551 297.696 64.9358 297.568C65.9396 297.488 66.9484 297.497 67.9506 297.596C68.8998 297.76 69.8363 297.991 70.7534 298.287C70.1975 299.367 69.5647 300.406 68.8598 301.395C68.8324 301.436 68.8051 301.477 68.7777 301.511ZM61.1759 299.259C61.1157 299.356 61.0445 299.445 60.964 299.526C61.0182 299.425 61.09 299.335 61.1759 299.259Z" fill="#3F3D56"/>
<path d="M159.234 217.5C159.172 219.649 159.111 221.799 159.049 223.948C158.919 228.72 158.785 233.494 158.646 238.27C158.502 243.644 158.352 249.016 158.195 254.385C158.12 257.158 158.042 259.93 157.962 262.703C157.75 270.172 157.541 277.638 157.333 285.103C157.313 285.876 157.286 286.643 157.265 287.416C157.163 291.12 157.06 294.824 156.957 298.527C156.841 302.546 156.727 306.564 156.616 310.583C156.534 313.595 156.449 316.609 156.363 319.626C155.747 341.485 155.132 363.344 154.517 385.203C154.491 386.556 153.942 387.847 152.986 388.804C152.031 389.762 150.741 390.311 149.39 390.337C148.033 390.326 146.736 389.782 145.776 388.821C144.817 387.861 144.274 386.561 144.263 385.203C144.605 372.908 144.951 360.612 145.302 348.317C145.609 337.2 145.922 326.082 146.238 314.964C146.341 311.302 146.443 307.637 146.546 303.97C146.703 298.452 146.858 292.934 147.011 287.416C147.031 286.643 147.059 285.876 147.079 285.103C147.093 284.425 147.113 283.754 147.134 283.076C147.435 272.362 147.735 261.646 148.036 250.928C148.159 246.711 148.278 242.492 148.392 238.27C148.528 233.457 148.665 228.647 148.802 223.839C148.863 221.724 148.918 219.615 148.98 217.5C149.006 216.146 149.554 214.855 150.51 213.898C151.466 212.941 152.755 212.391 154.107 212.365C155.463 212.376 156.761 212.921 157.72 213.881C158.679 214.842 159.223 216.141 159.234 217.5Z" fill="#3F3D56"/>
<path d="M440.493 218.925C435.117 239.312 428.691 259.406 421.242 279.128C419.186 284.568 417.083 289.997 414.835 295.361L415.352 294.135C414.349 296.689 413.067 299.126 411.531 301.399C411.427 301.546 411.32 301.691 411.212 301.835C411.743 301.155 411.844 301.02 411.515 301.432C411.341 301.637 411.169 301.844 410.99 302.045C410.511 302.581 409.998 303.085 409.452 303.553C409.315 303.671 409.176 303.786 409.034 303.898L409.675 303.399C409.601 303.575 409.079 303.808 408.916 303.908C408.389 304.226 407.84 304.505 407.272 304.742L408.497 304.224C407.566 304.6 406.596 304.866 405.604 305.019L406.967 304.835C405.993 304.97 405.006 304.981 404.029 304.867L405.392 305.05C404.593 304.94 403.811 304.729 403.065 304.423L404.289 304.94C403.891 304.766 403.507 304.561 403.142 304.327C402.956 304.206 402.386 303.773 403.131 304.344C403.906 304.936 403.231 304.394 403.072 304.237C402.939 304.106 402.819 303.963 402.689 303.83C402.086 303.21 403.37 304.895 402.96 304.171C402.741 303.808 402.541 303.434 402.36 303.05L402.877 304.277C402.642 303.693 402.474 303.084 402.379 302.462L402.562 303.827C402.464 303.053 402.464 302.27 402.56 301.496L402.377 302.861C402.502 301.997 402.731 301.151 403.057 300.341L402.54 301.568C402.768 301.023 403.037 300.497 403.345 299.994C403.487 299.734 403.654 299.489 403.843 299.261C403.877 299.272 402.976 300.296 403.454 299.779C403.579 299.644 403.696 299.501 403.823 299.367C404.025 299.152 404.242 298.956 404.455 298.752C405.17 298.071 403.456 299.414 404.28 298.875C404.877 298.482 405.506 298.138 406.159 297.849L404.935 298.366C406.029 297.916 407.177 297.608 408.35 297.449L406.987 297.632C408.455 297.463 409.939 297.481 411.403 297.685L410.04 297.501C411.894 297.783 413.706 298.293 415.435 299.021L414.21 298.503C417.895 300.087 421.158 302.439 424.415 304.745C427.562 307.027 430.877 309.065 434.332 310.843C441.765 314.543 449.766 316.967 458 318.013C469.81 319.462 481.794 317.917 492.853 313.521C503.912 309.125 513.691 302.018 521.293 292.853C522.221 291.868 522.755 290.576 522.795 289.222C522.785 287.863 522.247 286.56 521.293 285.592C519.412 283.863 515.859 283.374 514.043 285.592C512.321 287.697 510.47 289.692 508.501 291.566C507.581 292.44 506.637 293.286 505.669 294.106C505.116 294.574 504.555 295.033 503.987 295.483C503.718 295.695 502.88 296.262 504.167 295.348C503.872 295.557 503.589 295.786 503.298 296.001C498.993 299.18 494.327 301.837 489.399 303.918L490.623 303.401C485.335 305.622 479.78 307.146 474.099 307.934L475.462 307.751C469.619 308.521 463.699 308.512 457.857 307.725L459.22 307.908C453.379 307.105 447.668 305.547 442.227 303.273L443.452 303.791C438.202 301.465 433.22 298.575 428.593 295.171C426.184 293.386 423.645 291.785 420.996 290.383C417.909 288.805 414.567 287.787 411.126 287.379C404.673 286.618 398.098 289.135 394.55 294.718C391.286 299.856 391.328 307.207 395.9 311.576C400.608 316.075 407.739 316.037 413.288 313.223C418.632 310.512 421.842 304.881 424.099 299.571C429.179 287.621 433.677 275.396 437.867 263.108C442.013 250.951 445.772 238.671 449.146 226.268C449.564 224.732 449.975 223.194 450.381 221.655C451.065 219.061 449.519 215.959 446.8 215.339C445.49 215.001 444.1 215.186 442.923 215.855C441.746 216.524 440.875 217.625 440.493 218.925Z" fill="#3F3D56"/>
<path d="M491.65 217.5L489.805 283.078L487.969 348.315L486.931 385.203C486.942 386.561 487.486 387.861 488.445 388.821C489.404 389.781 490.702 390.326 492.058 390.338C493.409 390.312 494.698 389.762 495.654 388.805C496.61 387.848 497.159 386.557 497.185 385.203L499.03 319.625L500.866 254.388L501.904 217.5C501.893 216.141 501.349 214.842 500.39 213.882C499.431 212.921 498.133 212.377 496.777 212.365C495.426 212.391 494.137 212.941 493.181 213.898C492.225 214.855 491.676 216.146 491.65 217.5Z" fill="#3F3D56"/>
<path opacity="0.2" d="M314.184 366.895H315.776V294.3H352.916V292.71H315.776V262.078H344.458C344.038 261.543 343.605 261.014 343.16 260.492H315.776V240.261C315.25 240.036 314.719 239.819 314.184 239.615V260.492H282.976V234.57C282.441 234.595 281.915 234.632 281.384 234.677V260.492H256.487V241.152C255.952 241.389 255.425 241.638 254.903 241.9V260.492H233.973V262.078H254.903V292.71H233.973V294.3H254.903V366.895H256.487V294.3C259.756 294.299 262.994 294.944 266.015 296.197C269.036 297.449 271.781 299.286 274.093 301.601C276.405 303.917 278.239 306.665 279.49 309.691C280.741 312.716 281.385 315.958 281.384 319.233V366.895H282.976V294.3H314.184V366.895ZM256.487 292.71V262.078H281.384V292.71H256.487ZM282.976 292.71V262.078H283.601C287.617 262.079 291.594 262.871 295.305 264.411C299.016 265.95 302.388 268.207 305.227 271.051C308.067 273.895 310.32 277.272 311.857 280.988C313.394 284.705 314.185 288.688 314.184 292.71H282.976Z" fill="black"/>
<path d="M304.461 345.126C302.457 354.08 297.656 362.161 290.755 368.197C290.249 368.635 289.743 369.059 289.217 369.477C287.938 369.593 286.669 369.712 285.409 369.833C284.363 369.929 283.331 370.032 282.305 370.127L282.121 370.148L281.991 369.025L281.471 364.48C279.456 361.184 278.207 357.477 277.816 353.633C277.426 349.789 277.904 345.906 279.215 342.272C281.02 337.397 284.288 333.091 287.501 328.819C291.938 322.918 296.251 317.086 296.408 309.891C298.591 312.688 300.407 315.755 301.809 319.016C300.486 319.64 299.297 320.517 298.309 321.597C298.029 321.905 297.748 322.336 297.94 322.706C298.104 323.021 298.514 323.096 298.869 323.137C299.724 323.226 300.585 323.315 301.44 323.404C302.123 323.48 302.807 323.548 303.491 323.623C304.318 326.342 304.879 329.134 305.166 331.962C305.626 336.36 305.389 340.803 304.461 345.126Z" fill="#3F3D56"/>
<path d="M327.157 327.183C323.124 330.12 320.766 334.344 318.934 338.999C317.056 339.601 315.367 340.682 314.032 342.135C313.752 342.443 313.471 342.874 313.663 343.244C313.827 343.559 314.237 343.634 314.593 343.675C315.447 343.764 316.308 343.853 317.163 343.942C315.331 349.446 313.649 355.142 310.409 359.79C308.254 362.859 305.445 365.41 302.185 367.259C301.296 367.766 300.379 368.221 299.437 368.621C295.964 368.888 292.557 369.174 289.217 369.477C287.938 369.593 286.669 369.712 285.409 369.833C284.363 369.929 283.331 370.032 282.305 370.127C282.299 369.751 282.299 369.374 282.305 368.998C282.522 358.968 286.206 349.323 292.731 341.71C293.038 341.354 293.353 341.005 293.674 340.656C296.979 337.121 300.866 334.18 305.166 331.962C311.94 328.434 319.533 326.785 327.157 327.183Z" fill="#12709A"/>
<path d="M286.592 366.322L285.806 368.65L285.409 369.834C284.363 369.93 283.331 370.033 282.306 370.128L282.121 370.149C280.986 370.265 279.858 370.382 278.73 370.498C278.436 370.156 278.142 369.807 277.855 369.451C270.72 360.798 267.295 349.668 268.328 338.494C269.362 327.32 274.771 317.009 283.372 309.816C282.47 314.547 283.522 319.079 285.252 323.577C285.067 323.652 284.89 323.727 284.719 323.809C283.395 324.433 282.207 325.31 281.219 326.39C280.938 326.698 280.658 327.13 280.85 327.499C281.014 327.814 281.424 327.889 281.779 327.93C282.634 328.019 283.495 328.108 284.35 328.197C285.033 328.273 285.717 328.341 286.4 328.417C286.722 328.451 287.043 328.485 287.364 328.519C287.412 328.622 287.453 328.718 287.501 328.82C289.449 333.051 291.548 337.302 292.731 341.711C293.027 342.817 293.26 343.94 293.428 345.073C293.955 348.901 293.613 352.799 292.43 356.478C291.246 360.157 289.251 363.521 286.592 366.322Z" fill="#12709A"/>
<path d="M355.403 267.03C349.518 255.534 340.401 245.862 329.677 238.754C318.92 231.656 306.575 227.333 293.745 226.171C292.063 226.018 290.377 225.929 288.687 225.902C286.689 225.872 256.648 234.55 246.585 241.636C236.527 248.635 228.253 257.904 222.43 268.695C216.618 279.545 213.76 291.736 214.141 304.043C214.639 316.424 218.085 328.506 224.192 339.282C230.216 350.024 238.768 359.13 249.106 365.807C259.591 372.507 270.124 390.271 282.504 390.898C294.977 391.53 309.202 374.773 320.578 369.685C331.954 364.555 341.789 356.528 349.102 346.406C356.209 336.486 360.806 324.987 362.5 312.897C364.26 300.517 363.44 287.75 359.218 275.918C358.135 272.878 356.861 269.909 355.403 267.03C354.187 264.63 350.621 263.747 348.388 265.188C347.238 265.897 346.406 267.023 346.063 268.331C345.72 269.639 345.895 271.03 346.549 272.213C347.264 273.622 347.928 275.054 348.542 276.51L348.025 275.284C350.35 280.88 351.93 286.758 352.726 292.767L352.543 291.402C353.39 297.921 353.375 304.523 352.498 311.038L352.681 309.673C351.795 316.187 350.058 322.556 347.516 328.618L348.033 327.391C346.726 330.484 345.202 333.481 343.473 336.358C342.596 337.812 341.666 339.232 340.683 340.618C340.251 341.226 339.806 341.823 339.357 342.419C338.772 343.196 340.155 341.403 339.55 342.166C339.447 342.296 339.345 342.426 339.241 342.556C338.931 342.944 338.616 343.33 338.297 343.711C336.165 346.258 333.84 348.634 331.34 350.82C330.717 351.364 330.084 351.896 329.441 352.415C329.121 352.674 328.804 352.944 328.47 353.185C328.483 353.176 329.55 352.364 328.918 352.836C328.719 352.984 328.522 353.134 328.323 353.282C326.997 354.266 325.636 355.199 324.239 356.083C321.024 358.112 317.651 359.877 314.152 361.363L315.377 360.846C309.342 363.39 302.999 365.128 296.511 366.015L297.874 365.832C291.39 366.71 284.818 366.721 278.33 365.867L279.693 366.05C273.797 365.257 268.03 363.696 262.538 361.406L263.763 361.923C260.582 360.578 257.514 358.978 254.591 357.137C253.144 356.224 251.735 355.255 250.364 354.23C250.168 354.083 249.974 353.935 249.779 353.788C249.154 353.315 250.229 354.137 250.238 354.142C249.874 353.881 249.524 353.601 249.188 353.304C248.526 352.764 247.874 352.211 247.232 351.646C244.665 349.382 242.267 346.931 240.059 344.314C239.506 343.66 238.965 342.996 238.436 342.322C238.207 342.03 237.789 341.438 238.712 342.684C238.591 342.52 238.465 342.359 238.342 342.196C238.047 341.805 237.757 341.411 237.47 341.013C236.466 339.622 235.512 338.197 234.607 336.738C232.563 333.434 230.779 329.976 229.271 326.395L229.788 327.621C227.321 321.743 225.634 315.566 224.77 309.249L224.953 310.614C224.174 304.791 224.163 298.89 224.92 293.064L224.737 294.429C225.513 288.787 227.029 283.272 229.245 278.027L228.728 279.253C230.122 275.97 231.767 272.798 233.647 269.767C234.588 268.251 235.586 266.771 236.64 265.328C236.879 265 237.121 264.674 237.366 264.351C237.587 264.058 238.197 263.328 237.157 264.616C237.259 264.49 237.357 264.36 237.458 264.233C238.036 263.499 238.628 262.777 239.235 262.066C241.53 259.375 244.017 256.854 246.675 254.521C247.346 253.932 248.029 253.355 248.722 252.79C249.037 252.534 249.354 252.28 249.673 252.028C249.8 251.928 249.93 251.829 250.057 251.728C248.691 252.816 249.677 252.024 249.987 251.792C251.416 250.72 252.882 249.702 254.387 248.737C257.731 246.595 261.25 244.739 264.905 243.187L263.68 243.704C268.985 241.474 292.488 236.209 296.763 236.783L295.4 236.6C301.683 237.478 307.824 239.177 313.666 241.654L312.442 241.136C315.402 242.395 318.279 243.842 321.055 245.469C322.442 246.283 323.802 247.142 325.135 248.045C325.765 248.472 326.389 248.909 327.006 249.356C327.315 249.579 327.622 249.805 327.927 250.033C328.096 250.16 328.264 250.288 328.434 250.415C329.144 250.948 327.455 249.643 328.2 250.232C330.692 252.193 333.059 254.309 335.287 256.567C336.382 257.683 337.438 258.834 338.457 260.021C338.98 260.63 339.492 261.248 339.993 261.874C340.242 262.186 341.09 263.313 340.051 261.932C340.305 262.27 340.562 262.605 340.812 262.945C342.973 265.873 344.891 268.973 346.549 272.213C347.775 274.607 351.325 275.5 353.564 274.055C354.714 273.346 355.548 272.22 355.89 270.912C356.233 269.603 356.058 268.213 355.403 267.03Z" fill="#3F3D56"/>
<path d="M295.662 350.821C295.133 350.845 294.609 350.706 294.161 350.422C293.713 350.138 293.364 349.724 293.159 349.234C292.955 348.745 292.906 348.204 293.018 347.686C293.131 347.167 293.4 346.696 293.789 346.336C293.854 346.076 293.901 345.89 293.966 345.631C293.943 345.574 293.919 345.518 293.896 345.462C291.517 339.781 276.337 355.616 275.681 360.955C275.392 363.315 275.514 365.707 276.041 368.025C271.124 357.284 268.571 345.61 268.555 333.794C268.554 330.829 268.718 327.866 269.047 324.919C269.319 322.504 269.697 320.105 270.18 317.724C272.815 304.804 278.474 292.693 286.69 282.388C291.389 282.651 295.508 281.934 295.905 272.814C295.976 271.192 297.177 269.787 297.442 268.189C296.994 268.248 296.538 268.285 296.089 268.314C295.949 268.321 295.802 268.329 295.662 268.336L295.61 268.338C295.117 268.361 294.628 268.24 294.202 267.99C293.776 267.74 293.431 267.373 293.209 266.931C292.987 266.49 292.897 265.994 292.95 265.502C293.003 265.011 293.196 264.545 293.507 264.162C293.701 263.923 293.895 263.684 294.089 263.446C294.383 263.078 294.684 262.717 294.979 262.349C295.012 262.314 295.044 262.277 295.074 262.238C295.412 261.818 295.751 261.406 296.089 260.986C295.472 260.026 294.641 259.222 293.662 258.637C290.272 256.648 285.594 258.026 283.145 261.097C280.689 264.168 280.226 268.476 281.079 272.313C281.918 275.578 283.306 278.676 285.183 281.475C284.999 281.71 284.808 281.939 284.624 282.174C281.263 286.502 278.333 291.15 275.878 296.05C276.573 290.615 268.077 270.988 264.791 266.831C260.844 261.838 252.752 264.017 252.057 270.347C252.05 270.408 252.043 270.47 252.037 270.531C252.525 270.807 253.003 271.099 253.47 271.409C254.057 271.802 254.512 272.363 254.775 273.019C255.038 273.675 255.098 274.396 254.945 275.086C254.792 275.777 254.435 276.405 253.919 276.888C253.404 277.372 252.755 277.688 252.057 277.796L251.985 277.807C245.453 287.147 266.394 311.458 271.636 305.999C269.169 313.001 267.621 320.294 267.032 327.696C266.699 332.062 266.718 336.449 267.091 340.812L267.069 340.658C265.904 331.154 245.924 317.024 240.089 318.201C236.728 318.879 233.417 318.725 233.928 322.12C233.936 322.174 233.944 322.229 233.953 322.283C234.858 322.652 235.74 323.078 236.593 323.557C237.081 323.833 237.558 324.125 238.026 324.435C238.613 324.828 239.068 325.389 239.331 326.045C239.594 326.701 239.653 327.422 239.501 328.112C239.348 328.803 238.991 329.431 238.475 329.915C237.96 330.398 237.311 330.714 236.613 330.822L236.541 330.833C236.49 330.841 236.446 330.848 236.394 330.855C233.421 341.101 255.472 357.636 268.878 352.375H268.885C270.214 358.156 272.139 363.784 274.629 369.167H295.148C295.221 368.938 295.287 368.703 295.354 368.474C293.454 368.594 291.548 368.48 289.676 368.136C291.198 366.265 292.721 364.38 294.243 362.509C294.277 362.474 294.309 362.437 294.339 362.398C295.111 361.441 295.89 360.491 296.663 359.534L296.663 359.532C296.704 356.598 296.368 353.67 295.662 350.821L295.662 350.821ZM272.165 304.534L272.176 304.519L272.165 304.548V304.534ZM267.621 345.563L267.444 345.165C267.451 344.878 267.451 344.591 267.444 344.296C267.444 344.215 267.429 344.134 267.429 344.053C267.496 344.561 267.554 345.069 267.628 345.577L267.621 345.563Z" fill="#3F3D56"/>
<path d="M65.1135 308.063C69.2666 308.063 72.6333 304.691 72.6333 300.532C72.6333 296.373 69.2666 293.002 65.1135 293.002C60.9605 293.002 57.5938 296.373 57.5938 300.532C57.5938 304.691 60.9605 308.063 65.1135 308.063Z" fill="#3F3D56"/>
<path d="M155.351 390.213C159.504 390.213 162.871 386.842 162.871 382.683C162.871 378.524 159.504 375.152 155.351 375.152C151.198 375.152 147.831 378.524 147.831 382.683C147.831 386.842 151.198 390.213 155.351 390.213Z" fill="#3F3D56"/>
<path d="M497.843 390.213C501.996 390.213 505.363 386.842 505.363 382.683C505.363 378.524 501.996 375.152 497.843 375.152C493.69 375.152 490.323 378.524 490.323 382.683C490.323 386.842 493.69 390.213 497.843 390.213Z" fill="#3F3D56"/>
<path d="M516.301 294.371C520.454 294.371 523.82 291 523.82 286.841C523.82 282.682 520.454 279.311 516.301 279.311C512.147 279.311 508.781 282.682 508.781 286.841C508.781 291 512.147 294.371 516.301 294.371Z" fill="#3F3D56"/>
<path d="M494.425 224.543C498.578 224.543 501.945 221.172 501.945 217.013C501.945 212.854 498.578 209.482 494.425 209.482C490.272 209.482 486.905 212.854 486.905 217.013C486.905 221.172 490.272 224.543 494.425 224.543Z" fill="#3F3D56"/>
<path d="M180.645 286.841C180.64 288.765 179.897 290.613 178.57 292.003C177.243 293.394 175.432 294.22 173.514 294.311C171.595 294.402 169.715 293.75 168.262 292.492C166.81 291.233 165.896 289.464 165.71 287.549C165.524 285.634 166.08 283.722 167.264 282.206C168.447 280.691 170.166 279.689 172.067 279.409C173.967 279.128 175.902 279.589 177.472 280.697C179.042 281.806 180.127 283.476 180.501 285.363C180.598 285.85 180.646 286.345 180.645 286.841Z" fill="#3F3D56"/>
<path d="M331.04 246.452C335.193 246.452 338.56 243.08 338.56 238.921C338.56 234.762 335.193 231.391 331.04 231.391C326.887 231.391 323.521 234.762 323.521 238.921C323.521 243.08 326.887 246.452 331.04 246.452Z" fill="#3F3D56"/>
<path d="M256.526 238.921C256.522 240.845 255.779 242.693 254.452 244.083C253.124 245.474 251.314 246.3 249.395 246.391C247.477 246.482 245.597 245.831 244.144 244.572C242.691 243.313 241.778 241.544 241.592 239.629C241.406 237.715 241.962 235.802 243.145 234.286C244.329 232.771 246.048 231.769 247.949 231.489C249.849 231.208 251.784 231.669 253.354 232.777C254.924 233.886 256.008 235.556 256.383 237.443C256.479 237.93 256.527 238.425 256.526 238.921Z" fill="#3F3D56"/>
<path d="M159.453 217.013C159.448 218.937 158.705 220.785 157.378 222.175C156.051 223.566 154.24 224.392 152.322 224.483C150.403 224.574 148.523 223.922 147.07 222.664C145.618 221.405 144.704 219.635 144.518 217.721C144.332 215.806 144.888 213.894 146.072 212.378C147.255 210.863 148.975 209.861 150.875 209.58C152.775 209.299 154.71 209.761 156.28 210.869C157.85 211.978 158.935 213.648 159.309 215.534C159.406 216.021 159.454 216.517 159.453 217.013Z" fill="#3F3D56"/>
<path d="M409.657 310.803C413.81 310.803 417.176 307.432 417.176 303.273C417.176 299.114 413.81 295.742 409.657 295.742C405.503 295.742 402.137 299.114 402.137 303.273C402.137 307.432 405.503 310.803 409.657 310.803Z" fill="#3F3D56"/>
<path d="M291.391 242.344C297.431 242.344 302.328 237.44 302.328 231.391C302.328 225.341 297.431 220.438 291.391 220.438C285.35 220.438 280.453 225.341 280.453 231.391C280.453 237.44 285.35 242.344 291.391 242.344Z" fill="#3F3D56"/>
<path d="M587.186 390.79L0.813964 391.001C0.707072 391.001 0.601224 390.98 0.502469 390.939C0.403714 390.898 0.313988 390.838 0.238404 390.762C0.16282 390.686 0.102856 390.597 0.0619507 390.498C0.0210449 390.399 0 390.293 0 390.186C0 390.079 0.0210449 389.973 0.0619507 389.874C0.102856 389.775 0.16282 389.685 0.238404 389.609C0.313988 389.534 0.403714 389.474 0.502469 389.433C0.601224 389.392 0.707072 389.371 0.813964 389.371L587.186 389.16C587.402 389.161 587.608 389.247 587.76 389.4C587.912 389.553 587.998 389.759 587.998 389.975C587.998 390.191 587.912 390.398 587.76 390.551C587.608 390.704 587.402 390.79 587.186 390.79Z" fill="#CACACA"/>
</g>
<defs>
<clipPath id="clip0_1525_18273">
<rect width="588" height="391" fill="white"/>
</clipPath>
</defs>
</svg>
